<svg xmlns="http://www.w3.org/2000/svg" viewBox="0 0 165 165"><defs><style>.cls-1{fill:#333;}.cls-2,.cls-3,.cls-4{fill:#fff;}.cls-2,.cls-3{stroke:#333;stroke-miterlimit:10;}.cls-2{stroke-width:4.44px;}.cls-3{stroke-width:4.69px;}</style></defs><title>5_оплата</title><g id="Слой_2" data-name="Слой 2"><g id="Слой_1-2" data-name="Слой 1"><circle class="cls-1" cx="83.83" cy="82.17" r="50.34"/><path class="cls-1" d="M82.5,5A77.5,77.5,0,1,1,5,82.5,77.59,77.59,0,0,1,82.5,5m0-5A82.5,82.5,0,1,0,165,82.5,82.5,82.5,0,0,0,82.5,0Z"/><rect class="cls-2" x="69.75" y="138.75" width="30.5" height="17" rx="8.05" ry="8.05" transform="translate(-62.25 232.25) rotate(-90)"/><path class="cls-3" d="M23,82.5A59.5,59.5,0,1,0,82.5,23,59.5,59.5,0,0,0,23,82.5Zm109,0A49.5,49.5,0,1,1,82.5,33,49.5,49.5,0,0,1,132,82.5Z"/><path class="cls-4" d="M56.55,103h9.56v8.2a1.32,1.32,0,0,0,1.37,1.37H74.6a1.35,1.35,0,0,0,1-.39,1.29,1.29,0,0,0,.41-1V103H97.53a1.31,1.31,0,0,0,1.37-1.37V96.16a1.32,1.32,0,0,0-1.37-1.37H76v-5H90.48q8.54,0,13.94-5.21a17.85,17.85,0,0,0,5.4-13.45,17.86,17.86,0,0,0-5.4-13.45q-5.4-5.2-13.94-5.21h-23a1.31,1.31,0,0,0-1.37,1.37V80.66H56.55a1.29,1.29,0,0,0-1,.41,1.35,1.35,0,0,0-.38,1v6.36a1.31,1.31,0,0,0,1.37,1.37h9.56v5H56.55a1.32,1.32,0,0,0-1.37,1.37v5.46A1.31,1.31,0,0,0,56.55,103ZM76,61.54H89.63a10.14,10.14,0,0,1,7.3,2.65A9.12,9.12,0,0,1,99.7,71.1,9.12,9.12,0,0,1,96.93,78a10.13,10.13,0,0,1-7.3,2.65H76Z"/></g></g></svg>