<svg xmlns="http://www.w3.org/2000/svg" viewBox="0 0 165 165"><defs><style>.cls-1{fill:#333;}.cls-2,.cls-3,.cls-4{fill:#fff;}.cls-2,.cls-3{stroke:#333;stroke-miterlimit:10;}.cls-2{stroke-width:4.44px;}.cls-3{stroke-width:4.69px;}</style></defs><title>1_заявка</title><g id="Слой_2" data-name="Слой 2"><g id="Слой_1-2" data-name="Слой 1"><circle class="cls-1" cx="82.5" cy="82.5" r="50.34"/><path class="cls-1" d="M82.5,5A77.5,77.5,0,1,1,5,82.5,77.59,77.59,0,0,1,82.5,5m0-5A82.5,82.5,0,1,0,165,82.5,82.5,82.5,0,0,0,82.5,0Z"/><rect class="cls-2" x="2.5" y="71.5" width="30.5" height="17" rx="8.05" ry="8.05"/><path class="cls-3" d="M82.5,142A59.5,59.5,0,1,1,142,82.5,59.5,59.5,0,0,1,82.5,142Zm0-109A49.5,49.5,0,1,0,132,82.5,49.5,49.5,0,0,0,82.5,33Z"/><path class="cls-4" d="M113.78,89a4.67,4.67,0,0,1-4.67,4.67H84.26a2.11,2.11,0,0,0-1.27.42l-5.66,4.25V61.89A4.67,4.67,0,0,1,82,57.22h27.11a4.67,4.67,0,0,1,4.67,4.67Z"/><circle class="cls-4" cx="59.41" cy="98.04" r="6.93"/><path class="cls-4" d="M69,135,50,124l.22-5.63a9.19,9.19,0,1,1,18.37,0v2.41Z"/><path class="cls-4" d="M109.11,53H82a8.88,8.88,0,0,0-8.89,8.89v40.67a2.11,2.11,0,0,0,3.38,1.69L85,97.89h24.15A8.88,8.88,0,0,0,118,89V61.89A8.88,8.88,0,0,0,109.11,53Z"/><path class="cls-1" d="M98,87.71a2.28,2.28,0,1,1-2.28-2.28A2.28,2.28,0,0,1,98,87.71Z"/><path class="cls-1" d="M95.68,63.47a8.37,8.37,0,0,0-8.38,8.38h0a2.28,2.28,0,1,0,4.56,0,3.82,3.82,0,1,1,3.82,3.83,2.28,2.28,0,0,0-2.28,2.28v2.44a2.28,2.28,0,1,0,4.56,0v-.48a8.38,8.38,0,0,0-2.28-16.45Z"/></g></g></svg>