<svg xmlns="http://www.w3.org/2000/svg" viewBox="0 0 165 165"><defs><style>.cls-1{fill:#333;}.cls-2,.cls-3,.cls-4{fill:#fff;}.cls-2,.cls-3{stroke:#333;stroke-miterlimit:10;}.cls-2{stroke-width:4.44px;}.cls-3{stroke-width:4.69px;}</style></defs><title>3_Услуги дизайнера</title><g id="Слой_2" data-name="Слой 2"><g id="Слой_1-2" data-name="Слой 1"><circle class="cls-1" cx="82.5" cy="82.5" r="50.34"/><path class="cls-1" d="M82.5,5a77.5,77.5,0,0,1,54.8,132.3A77.5,77.5,0,0,1,27.7,27.7,77,77,0,0,1,82.5,5m0-5a82.5,82.5,0,1,0,58.34,24.16A82.24,82.24,0,0,0,82.5,0Z"/><rect class="cls-2" x="111.27" y="26.45" width="30.5" height="17" rx="8.05" ry="8.05" transform="translate(240.69 -29.8) rotate(135)"/><path class="cls-3" d="M124.57,124.57a59.5,59.5,0,1,0-84.15,0A59.5,59.5,0,0,0,124.57,124.57ZM47.5,47.5a49.5,49.5,0,1,1,0,70A49.5,49.5,0,0,1,47.5,47.5Z"/><path class="cls-4" d="M64.93,54.29a17.57,17.57,0,0,1,35.13,0v5.82c0,10,1.65,15.82,2.52,18.24a69.41,69.41,0,0,1-10,3.61l-.48-.41a1.36,1.36,0,0,0-1-.32V77.85a15.91,15.91,0,0,0,5.91-6.93,14.53,14.53,0,0,0,1.22-5.45c.16-6.14-5.11-7.7-10.69-9.35-4.68-1.38-10-2.94-14.32-7.17a1.36,1.36,0,0,0-1.9,2c4.83,4.7,10.72,6.43,15.45,7.83,6,1.76,8.84,2.78,8.74,6.66a11.78,11.78,0,0,1-1,4.42,13.18,13.18,0,0,1-25-2.93,2.84,2.84,0,0,0-2.95-2.31,1.53,1.53,0,0,1-.47,0,1.72,1.72,0,0,1-1.19-1.7V61.72A1.65,1.65,0,0,1,66.19,60a1.54,1.54,0,0,1,1.52.58,2,2,0,0,0,2.72.43,11.17,11.17,0,0,0,3-3.17,1.36,1.36,0,0,0-2.3-1.46,8.55,8.55,0,0,1-1.75,2,4.29,4.29,0,0,0-3.66-1.07,4.08,4.08,0,0,0-.79.22v-3.3Z"/><path class="cls-4" d="M76.58,84.18V79.26a15.87,15.87,0,0,0,11.84,0v4.92L84.31,89.9v0l-1.7,2.55a.09.09,0,0,1-.16,0l-1.7-2.55v0Z"/><path class="cls-4" d="M77.7,90.4l-2,1.47a1.55,1.55,0,0,1-2.32-.55l-2.33-4.66,2.43-2.08Z"/><path class="cls-4" d="M91.48,84.59l2.43,2.08-2.33,4.66a1.55,1.55,0,0,1-2.32.55l-2-1.47Z"/><path class="cls-4" d="M62.41,78.36a45.57,45.57,0,0,0,2.25-11.48,4,4,0,0,0,.84.31,4.26,4.26,0,0,0,1.28.11.18.18,0,0,1,.08.09,15.88,15.88,0,0,0,7,10.48v3.38a1.36,1.36,0,0,0-1,.32L72.4,82A69.43,69.43,0,0,1,62.41,78.36Z"/><path class="cls-4" d="M62.19,91l6.57-2.92L71,92.55a4.27,4.27,0,0,0,6.39,1.51l1.88-1.41.9,1.35a2.82,2.82,0,0,0,4.69,0l.9-1.35,1.88,1.41A4.27,4.27,0,0,0,94,92.55L96.27,88l6.7,3a7.42,7.42,0,0,1,1.46.86l-5,6.19H65.68l-5-6.19A7.44,7.44,0,0,1,62.19,91Z"/><path class="cls-4" d="M60.93,102.58,62.06,123a4.26,4.26,0,0,0,.28,1.31h-3.8L57.81,98a7.36,7.36,0,0,1,1.07-4l3.91,4.89a4.25,4.25,0,0,0-.7.59A4.29,4.29,0,0,0,60.93,102.58Z"/><path class="cls-4" d="M101.35,102.43l-1.13,20.38a1.55,1.55,0,0,1-1.55,1.46H66.33a1.55,1.55,0,0,1-1.55-1.46l-1.13-20.38a1.55,1.55,0,0,1,1.55-1.64H99.81a1.55,1.55,0,0,1,1.55,1.64Z"/><path class="cls-4" d="M106.62,124.28h-4a4.26,4.26,0,0,0,.28-1.31l1.13-20.38a4.25,4.25,0,0,0-1.76-3.7l4-5a7.37,7.37,0,0,1,1.06,4Z"/><path class="cls-1" d="M82.5,107.36a5,5,0,1,0,5,5A5,5,0,0,0,82.5,107.36Zm0,7.28a2.28,2.28,0,1,1,2.28-2.28A2.28,2.28,0,0,1,82.5,114.64Z"/><rect class="cls-4" x="48" y="123" width="69" height="4" rx="2" ry="2"/></g></g></svg>