<svg xmlns="http://www.w3.org/2000/svg" viewBox="0 0 165 165"><defs><style>.cls-1{fill:#333;}.cls-2,.cls-3,.cls-4{fill:#fff;}.cls-2,.cls-3{stroke:#333;stroke-miterlimit:10;}.cls-2{stroke-width:4.44px;}.cls-3{stroke-width:4.69px;}</style></defs><title>2_предоплата</title><g id="Слой_2" data-name="Слой 2"><g id="Слой_1-2" data-name="Слой 1"><circle class="cls-1" cx="82.5" cy="82.5" r="50.34"/><path class="cls-1" d="M82.5,5A77.5,77.5,0,1,1,5,82.5,77.59,77.59,0,0,1,82.5,5m0-5A82.5,82.5,0,1,0,165,82.5,82.5,82.5,0,0,0,82.5,0Z"/><rect class="cls-2" x="64.75" y="9.25" width="30.5" height="17" rx="8.05" ry="8.05" transform="translate(97.75 -62.25) rotate(90)"/><path class="cls-3" d="M142,82.5A59.5,59.5,0,1,0,82.5,142,59.5,59.5,0,0,0,142,82.5Zm-109,0A49.5,49.5,0,1,1,82.5,132,49.5,49.5,0,0,1,33,82.5Z"/><path class="cls-4" d="M126.6,83.47a1.56,1.56,0,0,0-.54-.54L68.93,48.21a1.56,1.56,0,0,0-1.56,0L39,63.32A1.56,1.56,0,0,0,38.89,66l57.29,35.56a1.56,1.56,0,0,0,1.59,0l28.28-16A1.56,1.56,0,0,0,126.6,83.47Z"/><polygon class="cls-4" points="97.1 98.5 42.88 64.8 68.08 51.33 122.2 84.22 97.1 98.5"/><path class="cls-4" d="M126.63,91.06a1.56,1.56,0,0,0-2.13-.58L97.12,106.06,40.57,71a1.57,1.57,0,1,0-1.68,2.65l57.29,35.56a1.56,1.56,0,0,0,1.59,0l28.28-16A1.56,1.56,0,0,0,126.63,91.06Z"/><path class="cls-4" d="M126.3,98.57a1.56,1.56,0,0,0-1.71-.51L97,113.65,40.57,78.53a1.57,1.57,0,1,0-1.68,2.65l57.29,35.59a1.56,1.56,0,0,0,1.59,0l28.28-16A1.56,1.56,0,0,0,126.3,98.57Z"/><path class="cls-1" d="M84.59,76.39c2.31,1.34,6.35,1.23,9-.25s3-3.76.67-5.1L87,66.79l-7.27,4-4.18-2.43L73.1,69.71l4.18,2.43-2.42,1.34L70.68,71l-2.42,1.34,4.18,2.43-4.85,2.67,2.09,1.21L74.52,76l4.18,2.43,2.42-1.34-4.18-2.43,2.42-1.34Zm2-7,5.22,3c1.15.67,1,1.81-.33,2.55a5.1,5.1,0,0,1-4.51.12l-5.22-3Z"/></g></g></svg>