<svg xmlns="http://www.w3.org/2000/svg" viewBox="0 0 165 165"><defs><style>.cls-1,.cls-11,.cls-7,.cls-8{fill:#333;}.cls-2,.cls-3,.cls-4,.cls-5,.cls-6{fill:#fff;}.cls-11,.cls-2,.cls-3,.cls-7,.cls-8{stroke:#333;}.cls-11,.cls-2,.cls-3,.cls-4,.cls-5,.cls-7,.cls-8,.cls-9{stroke-miterlimit:10;}.cls-2{stroke-width:4.44px;}.cls-3{stroke-width:4.69px;}.cls-10,.cls-4,.cls-5,.cls-9{stroke:#fff;}.cls-4{stroke-width:0.86px;}.cls-7{stroke-width:0.5px;}.cls-8{stroke-width:0.45px;}.cls-10,.cls-9{fill:none;stroke-linecap:round;stroke-width:3px;}.cls-10{stroke-linejoin:round;}</style></defs><title>6_доставка</title><g id="Слой_2" data-name="Слой 2"><g id="Слой_1-2" data-name="Слой 1"><circle class="cls-1" cx="83.58" cy="82.5" r="50.34"/><path class="cls-1" d="M82.5,5A77.5,77.5,0,1,1,5,82.5,77.59,77.59,0,0,1,82.5,5m0-5A82.5,82.5,0,1,0,165,82.5,82.5,82.5,0,0,0,82.5,0Z"/><rect class="cls-2" x="2.5" y="76.5" width="30.5" height="17" rx="8.05" ry="8.05"/><path class="cls-3" d="M82.5,23A59.5,59.5,0,1,0,142,82.5,59.5,59.5,0,0,0,82.5,23Zm0,109A49.5,49.5,0,1,1,132,82.5,49.5,49.5,0,0,1,82.5,132Z"/><path class="cls-4" d="M109.83,109.94a4.72,4.72,0,0,1-6.29,0,3.87,3.87,0,0,1-.58-5.15l0,0,.1-.14,0-.06.09-.11.08-.09.07-.08.17-.16a4.72,4.72,0,0,1,6.29,0l.17.16.07.07.08.09.09.11,0,.06.1.14,0,0A3.87,3.87,0,0,1,109.83,109.94Z"/><path class="cls-5" d="M117.78,105.08h0a1.83,1.83,0,0,1-1.9,1.75h-1.83a6.4,6.4,0,0,0-1.64-4.06l0,0-.2-.21-.05-.05-.22-.21,0,0a7.5,7.5,0,0,0-3.41-1.79,8.1,8.1,0,0,0-3.25-.07,7.53,7.53,0,0,0-3.76,1.86l0,0-.22.21,0,.05-.2.21,0,0a6.41,6.41,0,0,0-1.64,4.07H63a6.41,6.41,0,0,0-1.64-4.07v0l-.21-.22,0,0-.26-.25a7.3,7.3,0,0,0-1.16-.87,7.82,7.82,0,0,0-4.06-1.12,7.68,7.68,0,0,0-5.21,2l-.24.23-.07.07-.16.17-.07.08-.16.19,0,.06q-.21.26-.39.54v0l-.17.28h0a6.39,6.39,0,0,0-.77,2.18l-3.46-1.42a1,1,0,0,1-.61-.87V93.85a2.77,2.77,0,0,1,2.33-2.64l1.6-.31a17.28,17.28,0,0,0,8.44-4.2,15.18,15.18,0,0,1,10.32-3.93H80.4a15.46,15.46,0,0,1,8.19,2.31l7.35,4.58a18.42,18.42,0,0,0,6.15,2.64l10.14,1.86a6.93,6.93,0,0,1,4.57,3l.35.54a3.87,3.87,0,0,1,.64,2.12Z"/><path class="cls-6" d="M90,82.75l7.59,4.72a19,19,0,0,0,6.34,2.72l10.47,1.92a7.19,7.19,0,0,1,4.51,2.77V55.69a3.78,3.78,0,0,0-3.77-3.78H93.77A3.78,3.78,0,0,0,90,55.69v27Z"/><path class="cls-7" d="M113.84,80.07a2.55,2.55,0,0,0-3.4,0,2.1,2.1,0,0,0,0,3.14,2.55,2.55,0,0,0,3.4,0A2.1,2.1,0,0,0,113.84,80.07Zm-1.12,2.1a.87.87,0,0,1-1.16,0,.72.72,0,0,1,0-1.07.87.87,0,0,1,1.16,0A.72.72,0,0,1,112.72,82.18Z"/><path class="cls-8" d="M107.68,106a1.63,1.63,0,0,0-2.17,0,1.34,1.34,0,0,0,0,2,1.63,1.63,0,0,0,2.17,0A1.34,1.34,0,0,0,107.68,106Zm-.71,1.34a.55.55,0,0,1-.74,0,.46.46,0,0,1,0-.68.55.55,0,0,1,.74,0A.46.46,0,0,1,107,107.38Z"/><path class="cls-4" d="M58.72,109.94a4.72,4.72,0,0,1-6.29,0,3.87,3.87,0,0,1-.58-5.15l0,0,.1-.14,0-.06.09-.11.08-.09.07-.08.17-.16a4.72,4.72,0,0,1,6.29,0l.17.16.07.07.08.09.09.11,0,.06.1.14,0,0A3.87,3.87,0,0,1,58.72,109.94Z"/><path class="cls-8" d="M56.58,106a1.63,1.63,0,0,0-2.17,0,1.34,1.34,0,0,0,0,2,1.63,1.63,0,0,0,2.17,0A1.34,1.34,0,0,0,56.58,106Zm-.71,1.34a.55.55,0,0,1-.74,0,.46.46,0,0,1,0-.68.55.55,0,0,1,.74,0A.46.46,0,0,1,55.86,107.38Z"/><line class="cls-9" x1="46.73" y1="70.87" x2="79.87" y2="70.87"/><polyline class="cls-10" points="74.32 65.32 79.86 70.87 74.32 76.42"/><path class="cls-11" d="M94,91.56c-.42-.21-.84-.45-1.23-.7l-6.43-4A12.44,12.44,0,0,0,79.71,85H67.9a12.22,12.22,0,0,0-8.31,3.16,15.77,15.77,0,0,1-3.87,2.61,2.31,2.31,0,0,0-1.36,2.07,2.44,2.44,0,0,0,2.53,2.33h4a.9.9,0,1,0,0-1.79h-4a.57.57,0,0,1-.59-.54.53.53,0,0,1,.32-.48A17.71,17.71,0,0,0,61,89.43a10.2,10.2,0,0,1,6.93-2.64h2.64v6.59H67.31a.9.9,0,1,0,0,1.79H94a1.4,1.4,0,0,0,1.45-1.34A2.58,2.58,0,0,0,94,91.56ZM72.49,93.38V86.79h7.22a10.38,10.38,0,0,1,5.5,1.55l6.43,4c.45.28.91.54,1.39.78a.89.89,0,0,1,.3.25Z"/><path class="cls-11" d="M74.9,97.45H71.47a1,1,0,1,0,0,2H74.9a1,1,0,1,0,0-2Z"/></g></g></svg>