<svg xmlns="http://www.w3.org/2000/svg" viewBox="0 0 165 165"><defs><style>.cls-1{fill:#333;}.cls-2,.cls-3,.cls-4,.cls-5{fill:#fff;}.cls-2,.cls-3{stroke:#333;stroke-miterlimit:10;}.cls-2{stroke-width:4.44px;}.cls-3{stroke-width:4.69px;}.cls-4{font-size:28px;font-family:Panton-ExtraBold, Panton ExtraBold;}</style></defs><title>4_срок 3 дня</title><g id="Слой_2" data-name="Слой 2"><g id="Слой_1-2" data-name="Слой 1"><circle class="cls-1" cx="82.5" cy="82.5" r="50.34"/><path class="cls-1" d="M82.5,5A77.5,77.5,0,1,1,5,82.5,77.59,77.59,0,0,1,82.5,5m0-5A82.5,82.5,0,1,0,165,82.5,82.5,82.5,0,0,0,82.5,0Z"/><rect class="cls-2" x="132" y="71.5" width="30.5" height="17" rx="8.05" ry="8.05" transform="translate(294.5 160) rotate(180)"/><path class="cls-3" d="M82.5,142A59.5,59.5,0,1,0,23,82.5,59.5,59.5,0,0,0,82.5,142Zm0-109A49.5,49.5,0,1,1,33,82.5,49.5,49.5,0,0,1,82.5,33Z"/><text class="cls-4" transform="translate(73.81 76.68)">3<tspan x="-15.5" y="23">дня</tspan></text><path class="cls-5" d="M50.65,60.63a4,4,0,0,1-4-4V42.53H32.54a4,4,0,1,1,0-8H50.65a4,4,0,0,1,4,4V56.63A4,4,0,0,1,50.65,60.63Z"/><path class="cls-1" d="M50.65,36.53a2,2,0,0,1,2,2V56.63a2,2,0,0,1-4,0V40.53H32.54a2,2,0,1,1,0-4H50.65m0-4H32.54a6,6,0,0,0,0,12H44.65V56.63a6,6,0,0,0,12,0V38.53a6,6,0,0,0-6-6Z"/></g></g></svg>