<?xml version="1.0" encoding="utf-8"?>
<!-- Generator: Adobe Illustrator 21.1.0, SVG Export Plug-In . SVG Version: 6.00 Build 0)  -->
<svg version="1.1" id="Слой_1" xmlns="http://www.w3.org/2000/svg" xmlns:xlink="http://www.w3.org/1999/xlink" x="0px" y="0px"
	 viewBox="0 0 372.6 367.9" style="enable-background:new 0 0 372.6 367.9;" xml:space="preserve">
<style type="text/css">
	.st0{fill:#FFFFFF;}
	.st1{fill:#333333;}
	.st2{fill:none;stroke:#333333;stroke-width:4.82;stroke-linecap:round;stroke-linejoin:round;}
	.st3{fill:none;stroke:#333333;stroke-width:6.02;stroke-linecap:round;stroke-linejoin:round;}
	.st4{fill:#FFFFFF;stroke:#333333;stroke-miterlimit:10;}
	.st5{fill:none;stroke:#CB2026;stroke-width:2.41;stroke-linecap:round;stroke-miterlimit:22.93;}
</style>
<title>Ресурс 4</title>
<g id="Слой_2">
	<g id="Слой_1-2">
		<path class="st0" d="M37.1,109.4c-4-12.6-2.7-20.3,8.3-27.6c19.3-12.9,51.1-31.6,74.7-44.6c25.7-14.1,39.7-19.3,59-26.5
			s44.5-9.6,55.4,3.6c22.7,27.8,59,89.2,59,166.1S253,328.9,227.7,354.9c-6.2,6.4-16.4,6.6-22.9,0.3c-0.3-0.3-0.6-0.6-0.8-0.9
			l-2-5.4c-2.1-5.8-7.8-9.5-14-9c-26.8,9.1-46.2,14-67.7,13.8c-13.7-0.1-28.2-2.3-46.1-6.7c-3.5,0.5-9,2.1-12.5,5.1l-12.3,10.3
			c-4.7,2.6-11.4,3.1-15.3,0.3s-5.1-9.2-2.9-14.3c21.5-48.9,34.8-97.1,33.6-134.4C63.6,151.6,37.1,109.4,37.1,109.4z"/>
		<path class="st1" d="M34.4,110.7c-0.2-0.5-0.3-1.1-0.5-1.6l-0.3-1.3c-0.2-0.8-0.4-1.7-0.6-2.6c-0.4-1.8-0.6-3.6-0.7-5.4
			c-0.3-3.9,0.5-7.7,2.4-11.2c1.9-3.2,4.5-6,7.5-8.2c1.5-1.1,2.8-2,4.2-3l4.2-2.8C61.6,67.2,72.9,60,84.1,52.9s22.7-14.1,34.3-20.8
			c5.8-3.4,11.7-6.6,17.7-9.7s12.2-6,18.4-8.6s12.5-5,18.8-7.4l2.3-0.9c0.8-0.3,1.6-0.6,2.4-0.9c1.7-0.6,3.4-1.2,5-1.6
			c3.4-1,6.9-1.7,10.4-2.2c7.1-1,14.3-1,21.4,0.2c3.6,0.6,7.2,1.6,10.5,3c3.5,1.4,6.7,3.5,9.4,6.1l1,1l0.9,1.1
			c0.6,0.7,1.1,1.3,1.6,2c1.1,1.3,2,2.7,3.1,4c2,2.7,3.9,5.5,5.8,8.3c3.8,5.6,7.3,11.3,10.7,17.1c6.7,11.7,12.6,23.8,17.7,36.2
			c5.1,12.4,9.3,25.2,12.6,38.2c1.6,6.5,3.1,13.1,4.2,19.7s2.1,13.3,2.7,20s1,13.4,1.1,20.1c0,1.7,0,3.4,0,5l-0.1,5
			c-0.2,3.4-0.3,6.7-0.6,10.1c-1,13.4-3.1,26.7-6.2,39.8c-6.2,26.2-15.9,51.4-28.7,75c-6.4,11.9-13.7,23.2-21.9,33.9
			c-2.1,2.7-4.3,5.3-6.5,7.8c-1.2,1.3-2.4,2.6-3.8,3.8c-7.9,6.7-19.7,5.8-26.6-1.9l-0.1-0.1c-0.2-0.2-0.4-0.5-0.5-0.8
			c-0.6-1.9-1.3-3.8-1.9-5.5c-0.5-1.5-1.4-2.9-2.5-4c-1.1-1.1-2.4-1.9-3.9-2.5c-1.5-0.5-3.1-0.7-4.7-0.5l0.7-0.1
			c-9.1,3.3-18.3,6.7-27.7,9.6c-9.5,3-19.3,5.1-29.2,6.1c-10,0.9-20,0.5-29.9-1.2c-4.9-0.8-9.7-1.9-14.5-3.2
			c-4.8-1.3-9.4-2.8-14-4.7l0,0h0.9c-2.3,0.2-4.6,0.7-6.7,1.5c-1.1,0.4-2.1,0.9-3.1,1.5c-1,0.6-1.9,1.2-2.8,2
			c-3.8,3.1-7.6,6.4-11.3,9.7c-0.1,0.1-0.2,0.1-0.2,0.2l-0.1,0c-1.4,0.8-2.9,1.5-4.5,2.1c-1.6,0.7-3.2,1.2-4.9,1.4
			c-1.8,0.2-3.7,0.1-5.4-0.3c-2-0.5-3.8-1.6-5.2-3.1c-1.4-1.4-2.4-3.2-2.9-5.1c-0.5-1.8-0.6-3.6-0.4-5.5c0.2-1.8,0.6-3.5,1.3-5.1
			l0.5-1.2l0.4-1l0.8-2c4.4-10.8,8.4-21.7,11.9-32.8s6.7-22.2,9.3-33.5c2.6-11.2,4.7-22.5,6.1-33.9c0.7-5.7,1.2-11.4,1.4-17
			c0.1-2.8,0.2-5.6,0.2-8.5s-0.1-5.7-0.2-8.6c-0.2-5.7-0.6-11.4-1.1-17.1s-1.3-11.4-2.2-17c-1.8-11.3-4.4-22.5-7.8-33.5
			c-1.7-5.5-3.6-11-5.8-16.3c-1.1-2.7-2.3-5.3-3.5-7.9c-0.6-1.3-1.3-2.6-1.9-3.8l-1-1.9L34.4,110.7z M39.8,108.2
			c0-0.1,0-0.1-0.1-0.2L39.8,108.2l0.1,0.2l0.3,0.5l0.6,1l1.1,1.9c0.8,1.3,1.5,2.6,2.2,3.9c1.4,2.6,2.7,5.3,4,8
			c2.6,5.3,4.9,10.8,7.2,16.3c4.4,11.1,7.9,22.5,10.5,34.2c2.6,11.7,4.1,23.6,4.6,35.6c0.3,6,0.3,12-0.1,18.1c-0.3,6-1,12-1.9,17.9
			c-3.7,23.7-11,46.3-19.6,68.3c-2.1,5.5-4.4,10.9-6.7,16.3c-2.3,5.4-4.7,10.8-7.2,16.1l-0.9,2l-0.5,1c-0.1,0.3-0.2,0.6-0.3,0.9
			c-0.3,1.2-0.3,2.3-0.2,3.5c0.2,2.1,1.1,4,2.5,5.5c0.6,0.6,1.4,1.1,2.2,1.5c1,0.4,2.1,0.8,3.2,0.9c2.5,0.5,5.1,0.1,7.4-1L48,361
			c3.9-3.1,7.8-6.1,11.5-9.3c1-0.9,2.1-1.7,3.2-2.4c1.1-0.7,2.3-1.3,3.6-1.8c2.4-1.1,5-1.9,7.6-2.4c0.1,0,0.2,0,0.2,0l0.7,0.1l0,0
			c4.8,0.5,9.6,1.1,14.3,1.6s9.5,1,14.2,1.4c9.3,0.8,18.7,1,28,0.4c9.4-0.6,18.7-1.9,27.9-3.8c9.3-1.9,18.6-4.5,27.8-7.3h0.1
			c0.2-0.1,0.4-0.1,0.6-0.1c2.4-0.1,4.7,0.2,6.9,1c2.2,0.8,4.3,2.1,6,3.8c1.7,1.7,3,3.7,3.9,5.9c0.8,1.9,1.5,3.7,2.2,5.5l-0.6-0.9
			c4.7,5.4,12.9,6,18.4,1.4c1-0.8,2.1-2.1,3.2-3.3c2.2-2.4,4.3-4.9,6.3-7.5c8.1-10.4,15.3-21.4,21.5-33c12.6-23.2,22.1-48,28.3-73.7
			c3.1-12.8,5.1-25.9,6.1-39c0.3-3.3,0.4-6.6,0.6-9.9c0-3.3,0.2-6.6,0.1-9.9c0-6.6-0.4-13.2-1-19.7c-2.4-26.3-8.8-52.1-18.9-76.5
			c-5-12.2-10.9-24-17.7-35.4c-3.4-5.7-7-11.2-10.8-16.5c-1.9-2.7-3.9-5.3-5.9-7.9c-1-1.3-2-2.6-3.1-3.8c-0.5-0.6-1.1-1.3-1.6-1.9
			l-0.7-0.8l-0.8-0.7c-1.1-0.9-2.3-1.8-3.5-2.4c-1.3-0.7-2.7-1.2-4.1-1.6C220,9.7,217,9.3,214,9.3c-6.2,0.1-12.4,1-18.4,2.7
			c-3,0.8-6,1.7-9,2.6c-1.5,0.5-3,1-4.4,1.5l-4.6,1.7c-6.2,2.3-12.4,4.6-18.4,7.1c-12.2,4.8-23.9,10.4-35.7,16.5S100,53.7,88.3,60
			S65.2,73,53.9,80l-4.2,2.6c-1.4,0.9-2.8,1.8-4.1,2.6c-2.5,1.6-4.5,3.7-6.1,6.2c-1.4,2.5-2,5.3-1.7,8.1c0.1,1.5,0.4,3,0.7,4.5
			c0.2,0.8,0.4,1.5,0.6,2.3l0.3,1.1C39.6,107.7,39.7,107.9,39.8,108.2L39.8,108.2z"/>
		<path class="st1" d="M128,128.1c-2.4,1.2-3.6-1.2-2.7-3.3c3.3-7,15.3-17.2,23.1-22c10.4-6.4,20.5-8.9,26.7-7.6s7.6,5.1,6.1,9.9
			s-7,9.7-16.7,14.4C145.7,128.6,139.2,118,128,128.1z"/>
		<path class="st1" d="M257.9,81.7c2-0.8,1.3-3.2-1.6-5c-2.6-1.7-6.6-4.6-12.1-5.6c-5.3-1-10.7-0.6-15.8,1.1
			c-9.3,2.7-15.1,8.9-16.9,13.3s-1,10.2,3.2,11.9s9.5,0.6,17.2-2.7c11-4.6,13.8-9.5,18.9-11.9C252.6,81.8,254.3,81.9,257.9,81.7z"/>
		<path class="st1" d="M139.8,140c4.2-0.4,8.4-0.6,12.6-0.8s8.4-0.4,12.6-0.6l12.6-0.5l6.3-0.2c2.1,0,4.2-0.5,6.3,0.8
			c1.1,0.7,1.5,2.2,0.8,3.3c0,0,0,0,0,0c-0.2,0.3-0.4,0.5-0.7,0.7c-2.1,1.4-4.2,1-6.3,1.1h-6.3h-12.6c-4.2,0-8.4-0.1-12.6-0.2
			c-4.2-0.1-8.4-0.2-12.6-0.4c-0.9,0-1.7-0.7-1.7-1.6S138.9,140,139.8,140L139.8,140z"/>
		<path class="st1" d="M256.3,103.1c-2.6,2.4-5.2,4.7-7.9,7.1l-8,6.9l-8.1,6.8l-4.1,3.4c-1.4,1.1-2.5,2.5-4.6,2.7
			c-1,0.1-2-0.6-2.1-1.6c0,0,0,0,0,0c0-0.3,0-0.6,0.1-0.9c0.7-1.9,2.3-2.8,3.6-3.9l4.1-3.3l8.3-6.5l8.4-6.4c2.8-2.1,5.6-4.2,8.5-6.3
			c0.6-0.4,1.4-0.2,1.8,0.4C256.7,102,256.7,102.7,256.3,103.1L256.3,103.1z"/>
		<line class="st2" x1="170.6" y1="167.3" x2="189.7" y2="141.1"/>
		<line class="st2" x1="254.6" y1="132.4" x2="223.7" y2="128.4"/>
		<path class="st3" d="M184.9,196.2c3.2-1.6,5.9,2,8,3.5c3.2,2.3,7.3,3.8,11.8,2.4c7.1-2.1,6.1-10.7,13.8-11.1"/>
		<path class="st4" d="M218,224.8l18.1-18.8l8.3,7.6l-18.1,18.8c-3.8,3.9-3.7,10.2,0.2,14c0.1,0.1,0.2,0.2,0.3,0.2l24.1,22
			c4.2,3.8,10.7,3.6,14.7-0.5l18.1-18.8l8.3,7.6l-18.1,18.8c-8.3,8.5-21.9,9-30.8,1l-24.1-22c-8.5-7.7-9.2-20.9-1.5-29.4
			C217.7,225.1,217.8,224.9,218,224.8z"/>
		<path class="st3" d="M218,224.8l18.1-18.8l8.3,7.6l-18.1,18.8c-3.8,3.9-3.7,10.2,0.2,14c0.1,0.1,0.2,0.2,0.3,0.2l24.1,22
			c4.2,3.8,10.7,3.6,14.7-0.5l18.1-18.8l8.3,7.6l-18.1,18.8c-8.3,8.5-21.9,9-30.8,1l-24.1-22c-8.5-7.7-9.2-20.9-1.5-29.4
			C217.7,225.1,217.8,224.9,218,224.8z"/>
		<path class="st4" d="M295,275l-75.6-69c-5.4-5,1.2-20.9,15.2-38.1c2.2-2.7,4.6-5.5,7.1-8.2c0.7-0.8,1.4-1.5,2.1-2.3
			c9.6-10,19.6-18,28.1-22.9c9.2-5.4,16.7-7.2,20.1-4.1l75.6,69L295,275z"/>
		<path class="st3" d="M295,275l-75.6-69c-6.5-6,4.4-27.7,24.5-48.6c9.6-10,19.6-18,28.1-22.9c9.2-5.4,16.7-7.2,20.1-4.1l75.6,69
			L295,275z"/>
		<path class="st4" d="M295.3,274.5c-6.5-6,4.4-27.7,24.5-48.6s41.6-33,48.2-27s-4.4,27.7-24.5,48.6S301.8,280.5,295.3,274.5z"/>
		<path class="st3" d="M295,275c-6.5-6,4.4-27.7,24.5-48.6s41.6-32.9,48.2-27s-4.4,27.7-24.5,48.6S301.6,280.9,295,275z"/>
		<path class="st3" d="M280.5,240.8l3.3,3"/>
		<path class="st3" d="M235.7,199.9c12,11.4,27.2,25.3,39.5,36.1"/>
		<path class="st0" d="M49.4,133c0,0-49.2,10.9-46.8,71.8s76.9,75.4,76.9,75.4c10.2,3.2,38.2,9,72.1,9.7c31,0.7,63.5-4.9,72.1-7.3
			s14.9-6.1,18.3-9.1c5.9-5.4,8.7-13.4,7.4-21.3c-1.2-7.3-8-12.2-13.6-13.7c-10.9-2.8-27.2,3.6-37.7,5.2c-7.5,1.1-27,4.6-47.6,4.9
			c-17.2,0.2-34.4-1.5-51.3-4.9c-18.3-3.7-46.4-14.6-53.7-40.2s13.8-38.2,13.8-38.2L49.4,133z"/>
		<path class="st1" d="M47.8,135.7c0.7,0.7,2.8,0.3,2.2,0.4l0,0h-0.1h-0.2l-0.3,0.1l-0.7,0.2l-1.5,0.4c-1,0.3-2,0.7-2.9,1
			c-5.8,2.3-11.3,5.4-16.1,9.3c-6.5,5.2-11.8,11.8-15.6,19.2c-3.8,7.5-6.2,15.7-7,24.1c-0.5,4.2-0.7,8.5-0.6,12.8
			c0.1,4.2,0.5,8.4,1.4,12.5c1.7,8.2,5,16.1,9.8,23c4.8,7,10.8,13.1,17.6,18.2c6.8,5.1,14.3,9.4,22.1,12.8c3.9,1.7,7.9,3.3,12,4.6
			c4,1.4,8.1,2.5,12.2,3.4l0,0l0.2,0.1c4.5,1.3,9.1,2.4,13.8,3.4s9.4,1.8,14.1,2.5c9.4,1.4,18.9,2.4,28.5,3
			c4.8,0.3,9.5,0.5,14.3,0.6s9.5,0,14.3-0.2l3.6-0.2l3.6-0.3c2.4-0.1,4.8-0.4,7.1-0.6c4.7-0.5,9.5-1.1,14.2-1.8s9.4-1.5,14.1-2.4
			s9.4-1.9,13.7-3.1c4.3-1.2,8.4-2.9,12.3-5.1c1.8-1,3.6-2.2,5.1-3.6c1.4-1.3,2.7-2.8,3.7-4.4c2.1-3.4,3.2-7.4,3.1-11.4
			c0-0.5-0.1-1-0.1-1.5c0-0.4-0.1-0.9-0.2-1.3c-0.2-0.9-0.5-1.8-0.9-2.6c-0.9-1.8-2.2-3.3-3.7-4.5c-1.6-1.3-3.4-2.3-5.4-2.9
			c-2-0.6-4.2-0.9-6.3-0.8c-2.3,0-4.5,0.2-6.8,0.6c-2.3,0.4-4.6,0.8-6.9,1.4s-4.6,1.1-6.9,1.7s-4.7,1.2-7.1,1.8l-1.9,0.4l-1.8,0.3
			l-3.5,0.6l-7.1,1.3c-9.6,1.6-19.2,3-29,3.8c-19.6,1.6-39.4,0.5-58.7-3.3c-10-1.9-19.6-5.2-28.7-9.9c-4.6-2.4-8.9-5.3-12.9-8.6
			c-2-1.7-3.9-3.5-5.7-5.5c-1.8-2-3.4-4.1-4.9-6.3c-2.9-4.5-5.1-9.4-6.5-14.6c-1.4-5.2-1.7-10.7-0.9-16.1c0.9-5.4,3-10.5,6.1-14.9
			c1.5-2.2,3.3-4.2,5.2-6c1-0.9,2-1.7,3-2.5c0.5-0.4,1.1-0.8,1.6-1.1s1.1-0.7,1.8-1.1l0,0l-1.3,3.5
			C53.2,156.1,50.5,146.1,47.8,135.7z M50.9,130.4c3.9,11.1,7.8,22.6,11.2,34c0.3,1.1,0,2.3-0.9,3.1l-0.5,0.4l0,0
			c-0.3,0.2-0.8,0.6-1.2,0.9s-0.8,0.7-1.2,1.1c-0.8,0.8-1.6,1.5-2.3,2.4c-1.5,1.6-2.7,3.4-3.8,5.2c-2.2,3.6-3.5,7.7-3.9,11.9
			c-0.4,4.2,0.1,8.5,1.5,12.5c1.3,4.1,3.2,8,5.7,11.5c5,7,12.2,12.5,20.2,16.6c8.1,4.1,16.8,7,25.8,8.6c4.6,0.9,9.3,1.7,13.9,2.4
			s9.3,1.3,14,1.8c9.4,1,18.8,1.4,28.3,1.4c9.5-0.1,19-0.8,28.4-2l7.1-0.9l3.6-0.5l1.7-0.2l1.7-0.3c4.6-0.9,9.3-2.1,14-3.1
			c4.9-1.1,9.9-1.8,14.9-2.1c2.7-0.1,5.4,0.2,8,0.9c2.7,0.7,5.2,1.9,7.5,3.5c2.3,1.6,4.4,3.7,5.9,6.1c0.8,1.2,1.5,2.6,1.9,4
			c0.2,0.7,0.4,1.4,0.6,2.2c0.1,0.7,0.3,1.4,0.3,2.1c0.7,5.7-0.4,11.4-3.1,16.4c-1.4,2.5-3.2,4.8-5.4,6.7c-2.1,1.8-4.3,3.3-6.7,4.6
			c-4.6,2.5-9.4,4.3-14.5,5.5c-2.5,0.6-4.9,1-7.4,1.4s-4.8,0.7-7.3,1.1c-4.8,0.6-9.7,1.2-14.5,1.6c-9.7,0.9-19.4,1.3-29.1,1.5
			c-2.4,0.1-4.9,0-7.3,0.1s-4.9-0.1-7.3-0.1c-4.9-0.1-9.7-0.3-14.5-0.7c-9.7-0.7-19.3-1.7-28.9-3.2c-4.8-0.7-9.6-1.6-14.3-2.6
			s-9.5-2.1-14.3-3.5l0.3,0.1c-4.4-1-8.7-2.2-12.9-3.6c-4.2-1.4-8.3-3-12.4-4.9c-8.1-3.6-15.9-8.1-23-13.4
			c-7.2-5.3-13.5-11.8-18.7-19.2C7,234,3.4,225.6,1.6,216.7c-0.9-4.4-1.5-8.9-1.6-13.4c-0.1-4.5,0.1-8.9,0.5-13.3
			c0.8-9,3.3-17.8,7.2-26c4-8.2,9.8-15.4,16.8-21.2c3.5-2.9,7.3-5.4,11.3-7.6c2-1.1,4.1-2.1,6.2-2.9c1.1-0.4,2.1-0.8,3.2-1.2
			c0.5-0.2,1.1-0.4,1.7-0.5l0.8-0.3l0.4-0.1l0.2-0.1h0.1h0.1C48.1,130.1,50.2,129.8,50.9,130.4z"/>
		<g>
			<path class="st5" d="M260.4,208.1c14.2-15.9,29-26.7,49.1-37.6c3.4-1.2,4.6-2.4,9.8-3.1"/>
			<path class="st5" d="M264.1,211.2c10.6-14.3,36.9-31.2,48.5-36.2c4.4-1.9,6.7-2.1,9.2-2.9"/>
			<path class="st5" d="M268.2,214.4c9-12.4,34.1-29.8,48.3-35.6c2.3-1.1,4.7-2,7.2-2.5"/>
			<path class="st5" d="M272.5,217.1c6.1-8.7,27.1-26.2,45.6-34.3c3-1.4,3.5-1.4,6.8-2"/>
			<path class="st5" d="M276.9,219.6c10.9-11.1,29.1-27.8,45-33.1c1.3-0.5,2.6-0.9,4-1.1"/>
			<path class="st5" d="M281.3,221.2c12.1-11.3,30.6-26.9,44.5-31.5"/>
			<path class="st5" d="M285.9,222.1c15-14,20.9-19.5,39.5-27.7"/>
			<path class="st5" d="M290.6,222.3c15-14,15.5-15.4,33.9-23.9"/>
			<path class="st5" d="M294.6,222.3c7.4-7.9,19.7-17.4,28.7-20.3"/>
			<path class="st5" d="M299.9,221.1c3.7-4.2,10.6-11,20.5-14.8"/>
			<path class="st5" d="M304.4,220.1c3.9-4.4,8.6-7.9,13.8-10.4"/>
			<path class="st5" d="M257.5,204.3c14.1-14.9,27.7-27.1,48.7-37.6c2.8-1.6,5.9-2.7,9-3.2"/>
			<path class="st5" d="M255,199.5c5.8-8,28.8-27.6,49.3-37.2c2.2-1.2,4.7-2,7.2-2.1"/>
			<path class="st5" d="M253.1,194.9c5.1-6.4,29.1-26.8,49.4-36.4c1.3-0.7,2.7-1.1,4.2-1.2"/>
			<path class="st5" d="M252.3,190.4c7.6-9.6,28.4-26.9,49.1-35.2"/>
			<path class="st5" d="M251.7,186.2c11.8-14.1,26.7-25.2,43.5-32.6"/>
			<path class="st5" d="M252.1,180.5c9.4-11,18.3-18.5,37.1-28"/>
			<path class="st5" d="M252.8,175.4c9.9-11.1,12.8-12.9,30.3-23.1"/>
			<path class="st5" d="M255.1,169.3c5.7-6.9,13.4-12.5,22.3-16.9"/>
			<path class="st5" d="M308.8,219.1c2.3-2.3,4.9-4.4,7.8-6"/>
		</g>
	</g>
</g>
</svg>
