<svg xmlns="http://www.w3.org/2000/svg" viewBox="0 0 558.85 647.84"><defs><style>.cls-1{fill:#919191;}.cls-2{fill:#fff;}.cls-3{fill:#333;}.cls-4{fill:#e2000f;}.cls-5,.cls-6{fill:none;stroke:#919191;stroke-linecap:round;stroke-linejoin:round;}.cls-5{stroke-width:15px;}.cls-6{stroke-width:22.48px;}</style></defs><title>Ресурс 1</title><g id="Слой_2" data-name="Слой 2"><g id="Big_steam_4"><g id="Shadow"><path class="cls-1" d="M474.67,629.24c-34.1,8.7-81.9,14.1-134.8,14.1-55.9,0-106.1-6-140.4-15.6-11.8-3.3-13.8,9.7-29.5,9.7-20.6,0-17.5-33.4-17.5-40.4v-70.1c-8.9-4.5-75-40-83-111.9-26.5,1.3-43.1,2.9-45.1,4.7h-1.5s12.6,21.9,29.6,51.4c-11.9,1-62.5,7.9-50.7,49.7,10.4,36.8,84.9,58.4,117.4,66.2,12,20.9,20.3,35.2,20.4,35.3,1.9,3.3,7.8,18.9,28.4,18.9,15.6,0,14.1-6.1,26.8-4.6,36.9,4.5,88.7,7.3,144.6,7.3,52.9,0,99.3-2.5,131-6.6,12.6-1.6,20.2,5.1,36.6,5.1,9.6,0,12.6-3.3,12.6-7.2a14.59,14.59,0,0,1-11.4,4.8C491.87,640.14,488.27,625.74,474.67,629.24ZM64.77,524.84c-11.8-16.2-.9-23,4.2-25.2,5.4,9.3,10.9,18.9,16.4,28.4,3.8,6.6,7.5,13.1,11.2,19.5C83.07,541.44,71.37,533.94,64.77,524.84Z"/></g><g id="White_backgrownd" data-name="White backgrownd"><path class="cls-2" d="M528.47,424.74V167a9.63,9.63,0,0,0-.3-2.2v-.1c0-9.1-83.6-16.5-186.7-16.5-41.5,0-79.8,1.2-110.8,3.2-44.6,2.9-74,7.5-75.8,12.8h-1.1v108.5h-5.6s-62.5,6.5-76.8,107.3a134.6,134.6,0,0,0-.6,34c7.9,71.9,74.1,107.5,83,111.9V596c0,7-3.1,40.4,17.5,40.4,15.6,0,17.6-13,29.5-9.7,34.3,9.6,84.5,15.6,140.4,15.6,52.9,0,100.7-5.4,134.8-14.1,13.6-3.5,17.2,11,33.7,11a14.93,14.93,0,0,0,11.4-4.8,22,22,0,0,0,4.1-6.8c2.3-5.6,3.1-12.4,3.4-18.4,1.6-.3,3.2-.7,4.7-1,13.5-3.2,21.8-7.7,21.8-12.7V594h0V430.64Zm-374.8,22.8a91.42,91.42,0,0,1-21.9-35.4,94.26,94.26,0,0,1-4.6-24.5c-2.2-43.7,20.6-55.6,20.6-55.6l6-.8v116.3Z"/></g><g id="Cup"><path class="cls-3" d="M392.17,415.24a5.44,5.44,0,0,0-1.8,0c-19,1.8-29-4.3-36.1-21.9a7.91,7.91,0,0,0-1.5-2.4,6.53,6.53,0,0,0-11.3,2.9,10.89,10.89,0,0,0-.1,3.6c3.5,19.3,19.2,31.6,42,32.4h.7c1.8-.1,5.9.3,8.8-1.2a15.1,15.1,0,0,0,2.6-1.8A6.6,6.6,0,0,0,392.17,415.24Z"/><path class="cls-3" d="M284.47,255.34a8.7,8.7,0,0,0,4.1-1.4c10.1-7.3,18.9-16.3,29.2-23.3,18-12.3,19.8-20.4,42.4,1.6,1.1,1.1,2.5,2.9,4.9,2.7a6.74,6.74,0,0,0,4.9-9.7c-7-13.3-30.6-26.1-40.5-19.8-18,11.4-34.6,25.1-51.2,38.5-1,.8-1.3,2.3-1.5,4.1A6.76,6.76,0,0,0,284.47,255.34Z"/><path class="cls-3" d="M423.07,454.24a4,4,0,0,0-4,4v106.9a4,4,0,0,0,8,0V458.24A4,4,0,0,0,423.07,454.24Z"/><path class="cls-3" d="M423.07,570.34a4,4,0,0,0-4,4v10a4,4,0,0,0,8,0v-10A4,4,0,0,0,423.07,570.34Z"/><path class="cls-3" d="M558.77,429.74c-.7-5-7.5-7.5-24.7-9.6l-2.2-.3v-9.7l-.1-70a38.37,38.37,0,0,0,9.9-13c6.8-13.6,11-29.1,13.2-44.3,2.7-18.9-2.2-23.9-21.4-25.1-.6,0-1.3-.1-1.9-.1v-11.5l-.1-41v-38.4a4.87,4.87,0,0,0-.1-1.2c0-.3.1-.6.1-.9a5,5,0,0,0-.2-1.2,3,3,0,0,0-.4-1,2.18,2.18,0,0,0-.5-.8,1.47,1.47,0,0,0-.5-.6,7.48,7.48,0,0,0-1.8-1.5,19.08,19.08,0,0,0-3.2-1.6,53,53,0,0,0-6.1-1.9c-4-1-7.9-1.7-11.9-2.4-7.9-1.3-15.8-2.2-23.7-2.9-15.8-1.6-31.5-2.6-47.3-3.4-31.5-1.7-63.1-2.5-94.7-2.6s-63.2-.5-94.8.9c-15.8.7-31.6,1.8-47.3,3.9-7.9,1-15.7,2.2-23.6,3.7-3.9.8-7.9,1.6-11.8,2.7-2,.6-7.9,2.4-12.2,6.2a2.79,2.79,0,0,0-.8,2c-.6,13.7-2.7,96.9-2.8,104.3-.4.1-7.2,1.9-8.9,2.5a65,65,0,0,0-9.7,4.3,83.47,83.47,0,0,0-17.3,12,111.29,111.29,0,0,0-25,33c-1.6,3.1-3,6.2-4.3,9.4s-2.5,6.4-3.7,9.6-2.1,6.5-3.1,9.8-1.8,6.6-2.5,9.9c-1.5,6.6-2.8,13.3-3.7,20a140.37,140.37,0,0,0-1.5,20.5,126.92,126.92,0,0,0,1.6,20.5,135.47,135.47,0,0,0,4.8,20,137,137,0,0,0,18.7,36.5,164.83,164.83,0,0,0,27.7,30.1,179.34,179.34,0,0,0,16.3,12.4c2.8,1.9,5.7,3.8,8.6,5.5,1,.6,2,1.1,3,1.7q.6,23.85.9,47.7l.2,20.5c.1,3.2-.2,6.7-.2,10.3s0,7.1.3,10.7a48.46,48.46,0,0,0,2.1,11,24.59,24.59,0,0,0,2.5,5.5,20.08,20.08,0,0,0,4.3,5,18.1,18.1,0,0,0,6.1,3.3,21.65,21.65,0,0,0,6.5.9,23.5,23.5,0,0,0,11.8-3.2c3.6-2,6.3-4.7,8.6-6.4s4.3-2.3,6.9-1.7c.6.1,1.5.4,2.3.6l2.5.7,2.5.7,2.5.6,5,1.2,5,1.1c3.4.8,6.7,1.5,10.1,2.2s6.8,1.3,10.2,1.9l5.1.9,5.1.8c3.4.6,6.8,1.1,10.2,1.6a567.45,567.45,0,0,0,164.6-.4c13.6-2,27.2-4.4,40.7-7.4l5-1.2,5-1.3a15.85,15.85,0,0,1,4.3-.8,8.57,8.57,0,0,1,3.6.7c2.4.9,4.7,2.9,7.5,5.2a34.22,34.22,0,0,0,10.1,6,26.6,26.6,0,0,0,6.1,1.3c1.1.1,2,.1,3.1.1a18.41,18.41,0,0,0,3.3-.3,20,20,0,0,0,6.6-2.3,19.46,19.46,0,0,0,5.3-4.5,28.2,28.2,0,0,0,5.4-11,53.4,53.4,0,0,0,1.7-11c.1-1.1.1-2.2.2-3.2,14.9-3.3,26.5-8.6,26.5-16.9V430.64C559,430.34,558.87,430,558.77,429.74Zm-26.9-.7c4.3.5,8,1,10.9,1.6-2.9.5-6.6,1.1-10.9,1.6-2.2.3-4.5.5-7,.7-11,1-25,1.6-41.4,1.6-27.7,0-48.5-1.9-59.3-3.9,10.8-2,31.7-3.9,59.3-3.9,16.4,0,30.5.7,41.4,1.6C527.37,428.54,529.77,428.84,531.87,429Zm-152.4,121.7c.5-.7,1-1.3,1.5-2a41,41,0,0,0,5-10.6,54,54,0,0,0,2-11.1,51.48,51.48,0,0,0,.2-5.5,37.28,37.28,0,0,0-.4-5.7,36.14,36.14,0,0,0-9.8-20.7,45.21,45.21,0,0,0-8.9-6.9c-1.3-.7-2.4-1.4-3.8-2a11.34,11.34,0,0,1,9.7-6l33.2-.6v70.6Zm28.6,8.6v7.8l-34.1.6a27,27,0,0,1-13.5-3.3,25.57,25.57,0,0,1,2.4-1.1,53,53,0,0,0,7-3.8,21.19,21.19,0,0,0,4.4.4Zm-51.6-75.7a54.88,54.88,0,0,0-8-.6,28.56,28.56,0,0,1,26.5-19.6l33-.6v7.8l-33.2.6A20.55,20.55,0,0,0,356.47,483.64Zm51.6-53.4v23.1l-33.2,1a37.73,37.73,0,0,0-35.8,29,11,11,0,0,0-1.8.2c-6.8.6-13.5,1.6-19.9,2.1-.8,0-1.6.1-2.4.1h-7.4c-3.3,0-6.6,0-9.9-.1q-9.9-.15-19.8-.9c-6.5-.5-13-1.3-19.5-2.3a249.5,249.5,0,0,1-37.9-9.3c-6.2-2-12.3-4.1-18.3-6.6-3-1.2-6-2.5-9-3.8l-4.4-2c-1.4-.7-2.7-1.3-4.1-2a98.18,98.18,0,0,1-24.5-18.5c.1-10.1.2-20.2.3-30.2,0-23.4-.1-46.9-.3-70.3a7.51,7.51,0,0,0,2.6-.5c16.1-6.9,31.8-14.7,47.7-21.9,12.7-5.7,25.6-10.8,38.8-16.4,1.9,4,3,6.4,4.1,8.8q26.7,59,91.1,55.3c23.2-1.3,41.3-10.9,50.8-33.1a200.55,200.55,0,0,0,10.7-30.8c2-8,6-10.5,13.7-11.2,9.6-.9,15.3,2.5,19.3,11.1,8.6,18.2,22.7,31.5,40.2,41,16.1,8.8,32.9,9.4,45.8,2.4l-.1,65.3v9c-12-1-26.4-1.6-41.4-1.6a453.75,453.75,0,0,0-50.6,2.5c-17.2,2.1-24,4.6-24.7,9.6A3.4,3.4,0,0,0,408.07,430.24Zm-247.7-265.9c1.6-.6,3.4-1.1,5.2-1.6,2.1-.5,4.3-.9,6.5-1.3,1.6-.3,3.2-.5,4.8-.8,7.7-1,15.5-1.8,23.3-2.4,15.6-1.1,31.3-2.1,47-3s31.4-1.8,47.1-2.5,31.4-1.1,47.2-1.2c31.5-.1,62.9.4,94.4,1.9,15.7.9,31.4,1.9,47,3.6,7.8.9,15.6,1.8,23.2,3.2,2.5.4,5,.9,7.4,1.4l3.9.9a39.59,39.59,0,0,1,5.2,1.7,10.37,10.37,0,0,0,1,.4,10.37,10.37,0,0,1-1,.4,39.46,39.46,0,0,1-5.2,1.5c-.7.2-1.5.3-2.2.5-3,.6-6.1,1-9.2,1.4-7.7,1-15.5,1.5-23.3,2.1s-15.6,1.3-23.4,1.9-15.7,1-23.5,1.4c-31.4,1.7-62.8,2.6-94.3,2.9-15.7.1-31.5.1-47.2-.2s-31.4-.6-47.1-1.3-31.4-1.6-47-3.1c-7.8-.8-15.6-1.7-23.2-3-3.5-.6-6.9-1.2-10.2-2-.4-.1-.7-.2-1-.3-1.8-.5-3.6-1-5.2-1.6-.3-.1-.7-.3-1-.4A5.58,5.58,0,0,1,160.37,164.34Zm-19,348.8c-1.35-.93-10.7-7.6-15.7-11.9a160.72,160.72,0,0,1-26.6-28.7,126.13,126.13,0,0,1-17.6-34.7,123.65,123.65,0,0,1-4.5-18.9,125.72,125.72,0,0,1-1.4-19.4,128.06,128.06,0,0,1,1.5-19.5c.9-6.5,2.2-13,3.7-19.4a152.16,152.16,0,0,1,13.4-36.7,101.25,101.25,0,0,1,23.5-30.3,67.27,67.27,0,0,1,15.8-10.6,137.4,137.4,0,0,1,25.9-8.5c-.2-9.5-.3-18.9-.5-28.4l-.4-20.5-.5-20.5c-.3-11.4-.7-22.8-1.1-34.2.4.2.7.3,1.1.5a51.64,51.64,0,0,0,6,1.9c4,1,7.9,1.8,11.9,2.4,7.9,1.3,15.8,2.3,23.7,3.1,15.8,1.7,31.5,2.9,47.3,3.8s31.6,1.7,47.3,2.2,31.6.8,47.4.9c31.6.2,63.2-.1,94.8-1.7q11.85-.6,23.7-1.5c7.9-.6,15.8-1.2,23.7-2.2s15.8-2.3,23.6-4c3.9-.8,7.9-1.8,11.8-2.9a47.62,47.62,0,0,0,6-2.1c.1,0,.2-.1.4-.1V205l-.1,41v11.1c-17.8-1-35.7-1.5-53.5-1-65.7,1.8-131.6,3.1-196.3,17.1-11.2,2.4-23.4,3.1-29.8,15.4-1.1,2.1-5.4,2.6-8.2,3.9-25.9,11.9-74.6,34.6-77.5,36-11.5.7-17,3.8-20.9,7.5a46.79,46.79,0,0,0-6.8,8.6,59.3,59.3,0,0,0-4.8,9.8,73.63,73.63,0,0,0-3.2,10.4,77.91,77.91,0,0,0-1.7,10.6c-.3,3.5-.5,7.1-.5,10.6a97.51,97.51,0,0,0,2.4,21.4,92.43,92.43,0,0,0,7.2,20.5,94.8,94.8,0,0,0,11.7,18.3,107.19,107.19,0,0,0,16.3,15.8,105.36,105.36,0,0,0,17.4,11.2c1.6.8,3.3,1.6,5,2.3l4.8,2c3.2,1.3,6.4,2.5,9.6,3.7,6.5,2.3,13,4.4,19.7,6.3a241.4,241.4,0,0,0,40.6,7.2c6.8.6,13.7.9,20.5,1s13.6.1,20.3-.2c3.4-.1,6.8-.3,10.1-.5l5-.3,2.6-.1c.9-.1,1.8-.1,2.6-.2,6.9-.7,13.5-2,19.9-2.7,3-.3,6.1-.5,9-.5h.5a43.15,43.15,0,0,1,7.3.6,11.63,11.63,0,0,1,1.8.4,23.43,23.43,0,0,1,4,1.3,21.85,21.85,0,0,1,3.3,1.8l.6.4a30.65,30.65,0,0,1,6.7,5.7,26.45,26.45,0,0,1,4.3,7.2,25.42,25.42,0,0,1,1.6,8.2,31.23,31.23,0,0,1-.1,4.3,34.69,34.69,0,0,1-.6,4.5,45.13,45.13,0,0,1-2.3,8.4,33.86,33.86,0,0,1-3.9,7.3,21.23,21.23,0,0,1-4.8,5.1c-.2.2-.5.4-.7.6a42.52,42.52,0,0,1-6.9,4.3.76.76,0,0,1-.5.2,60.08,60.08,0,0,1-7,2.8c-.5.2-.9.3-1.4.5a52.78,52.78,0,0,1-7.6,1.9c-.4.1-.8.1-1.2.2-3,.4-6.3.9-9.5,1.1-6.5.6-13.1,1-19.6,1.2s-13.2.2-19.8,0-13.2-.5-19.8-1.1-13.1-1.5-19.6-2.7-12.9-2.6-19.4-4.2a385.83,385.83,0,0,1-37.9-11.7c-6.2-2.3-15-6-18.4-7.5A181.27,181.27,0,0,1,141.37,513.14Zm5.7-90.1a83.22,83.22,0,0,1-8.1-19.2c-.9-3-1.4-6-2-9s-.8-6.1-1-9.3a97,97,0,0,1,.5-18.7,65,65,0,0,1,4.9-17.5c.7-1.3,1.4-2.7,2.1-3.9s1.6-2.5,2.4-3.7l1.2-1.5c-.2,23.3-.3,46.5-.3,69.8C147,414.44,147.07,418.74,147.07,423Zm374.3,200.5a19.27,19.27,0,0,1-4.2,6.9,9.8,9.8,0,0,1-5.7,2.9,10.28,10.28,0,0,1-1.8.1,14.08,14.08,0,0,1-2-.1,26.29,26.29,0,0,1-3.9-.6,31.41,31.41,0,0,1-8-3.4c-1.5-.8-3-1.7-4.7-2.6a31.27,31.27,0,0,0-5.6-2.3,20.29,20.29,0,0,0-6.5-.7,38.47,38.47,0,0,0-5.8,1l-4.9,1.2-5,1.1a360.5,360.5,0,0,1-40.2,5.9c-13.5,1.3-27,2-40.6,2.5s-27.1.7-40.7.7h-10.2l-10.2-.1-10.2-.2-10.2-.3c-13.5-.5-27.1-1.2-40.6-2.5s-26.9-3-40.2-5.6l-5-1-4.9-1.1-2.5-.6-2.5-.6-5.1-1.3a16.21,16.21,0,0,0-6.6-.2,20.28,20.28,0,0,0-6,2.3c-1.7,1-3.2,2-4.5,2.8s-2.7,1.5-4,2.1a23.67,23.67,0,0,1-7.9,1.6,10.27,10.27,0,0,1-6.6-1.8,14.9,14.9,0,0,1-4.5-6.2,36.56,36.56,0,0,1-2.5-8.9,79.3,79.3,0,0,1-.9-9.8c-.1-1.7,0-3.3,0-5l.1-2.6v-2.6L157,574c.2-14.2.5-28.4.8-42.6,4.9,2.7,9.8,5.1,14.8,7.4,6.2,2.8,12.4,5.3,18.8,7.7a369.22,369.22,0,0,0,38.7,12.1c6.6,1.6,13.1,3.1,19.8,4.4s13.4,2.3,20.1,3.3c3.4.4,6.7.9,10.1,1.2s6.7.7,10.1,1c6.8.6,13.5,1,20.3,1.3s13.6.3,20.4.1c3.4-.1,6.9-.3,10.5-.7a70.36,70.36,0,0,0,8-1.4,35.41,35.41,0,0,0,23.7,8.9h.7l33.9-.6v19.3c0,17.1,49.4,21.6,75.4,21.6a261.6,261.6,0,0,0,40.3-3.1c.4.2.4.4.4.6A42.47,42.47,0,0,1,521.37,623.54Zm29.7-28.2c0,.9-3,5-17.9,8.6-.2.1-.5.1-.7.2-2.4.6-5,1.1-7.7,1.6a242.16,242.16,0,0,1-41.2,3.3c-18.8,0-36.4-1.8-49.6-5-14.9-3.7-17.9-7.8-17.9-8.6V438c3.9,1.3,9.4,2.2,16.9,3.1a453.75,453.75,0,0,0,50.6,2.5c15,0,29.4-.6,41.4-1.6,2.4-.2,4.8-.4,7-.7l2.2-.3a102,102,0,0,0,16.9-3.1Z"/></g><g id="Imprint"><path class="cls-4" d="M522.37,499.64c1.6-.6,2.9-1.2,4.2-1.7a33.45,33.45,0,0,1,10.5-3,1.87,1.87,0,0,0-.5-3.7,36.49,36.49,0,0,0-11.5,3.3c-1.3.5-2.6,1.1-4.1,1.6l-.3.1c-33.4,18.2-55.6,35.2-76.7,58.8a1.79,1.79,0,0,0,.1,2.6,1.85,1.85,0,0,0,1.2.5,4,4,0,0,0,1.6-.6C467.57,534.34,489.47,517.54,522.37,499.64Z"/><path class="cls-4" d="M527.07,506.44a57.36,57.36,0,0,1,10.5-3.5c1.2-.3,2.3-.5,3.5-.9a1.92,1.92,0,0,0,1.2-2.3,1.88,1.88,0,0,0-2.3-1.2c-1.1.4-2.2.6-3.3.9a58.77,58.77,0,0,0-11.1,3.7c-16.8,7.1-58.9,33.7-76,56.7a1.9,1.9,0,0,0,.4,2.6,1.5,1.5,0,0,0,1.1.4,1.65,1.65,0,0,0,1.5-.9C469.27,539.44,510.47,513.54,527.07,506.44Z"/><path class="cls-4" d="M533.07,512.34h0c4-1.9,5.4-2.2,11-3.8a1.87,1.87,0,1,0-1-3.6,56.11,56.11,0,0,0-11.5,4c-22.6,9.3-61.9,36.9-75.7,55.9a1.9,1.9,0,0,0,.4,2.6,1.5,1.5,0,0,0,1.1.4,2.06,2.06,0,0,0,1.6-.9C472.37,548.44,511,521.44,533.07,512.34Z"/><path class="cls-4" d="M535.47,518.64a22.81,22.81,0,0,1,7.9-2.6,20.69,20.69,0,0,0,2.2-.4,1.88,1.88,0,0,0-.7-3.7c-.8.1-1.5.3-2.1.4a27.36,27.36,0,0,0-8.8,2.9c-29.7,13-62.2,40.6-71.5,53.9a2,2,0,0,0,.5,2.6,2.28,2.28,0,0,0,1.1.3,1.61,1.61,0,0,0,1.4-.7C474.57,558.34,506.27,531.44,535.47,518.64Z"/><path class="cls-4" d="M542.67,523.84a16.71,16.71,0,0,1,4.4-1.1,1.86,1.86,0,0,0-.3-3.7,20.28,20.28,0,0,0-5.4,1.4c-.4.2-.8.3-1.3.5-23.9,8-51.5,32.7-70.5,51.9a1.87,1.87,0,0,0,0,2.6,2.11,2.11,0,0,0,1.3.5,2,2,0,0,0,1.4-.6c26.7-27.2,50.6-44.8,69-51C541.77,524.14,542.17,524,542.67,523.84Z"/><path class="cls-4" d="M546.17,526c-21.7,7-49.9,30.6-69.8,49.2a1.78,1.78,0,0,0-.1,2.6,2,2,0,0,0,1.4.6,2.84,2.84,0,0,0,1.3-.4c19.6-18.3,47.4-41.5,68.4-48.4a1.9,1.9,0,0,0-1.2-3.6Z"/><path class="cls-4" d="M545.47,533.24c-29.3,12.9-38.8,21.8-61.9,43.3a1.78,1.78,0,0,0-.1,2.6,2,2,0,0,0,1.4.6,2.5,2.5,0,0,0,1.3-.4c23.4-21.8,32.2-30,60.8-42.6a1.9,1.9,0,1,0-1.5-3.5Z"/><path class="cls-4" d="M543.77,539.44c-26,12.1-29.1,15.1-46.8,31.7-1.9,1.8-3.9,3.7-6.2,5.8a1.78,1.78,0,0,0-.1,2.6,2,2,0,0,0,1.4.6,1.9,1.9,0,0,0,1.3-.5c2.3-2.1,4.3-4,6.2-5.8,17.3-16.3,20.4-19.2,45.8-31a1.89,1.89,0,0,0,.9-2.5A2,2,0,0,0,543.77,539.44Z"/><path class="cls-4" d="M542.37,545c-14.3,4.5-33.6,19.4-45.3,31.9a1.79,1.79,0,0,0,.1,2.6,2.11,2.11,0,0,0,1.3.5,1.61,1.61,0,0,0,1.3-.6,167.35,167.35,0,0,1,14.8-13.7,90.71,90.71,0,0,0-9.3,9.3,1.79,1.79,0,0,0,.2,2.6,1.85,1.85,0,0,0,1.2.5,2,2,0,0,0,1.4-.6,74,74,0,0,1,6.8-6.9c-1,1-1.9,2-2.8,2.9a1.88,1.88,0,0,0,.2,2.6,1.85,1.85,0,0,0,1.2.5,2,2,0,0,0,1.4-.5,63.54,63.54,0,0,1,7.8-7.5c-1,.9-2.1,1.9-3.5,3.2a1.78,1.78,0,0,0-.1,2.6,2,2,0,0,0,1.4.6,2.2,2.2,0,0,0,1.3-.4c5.6-5.3,7-6.2,11.8-9.2a1.9,1.9,0,0,0-1-3.5,30.13,30.13,0,0,1,3.1-1.6,1.81,1.81,0,0,0,.9-2.5,2,2,0,0,0-1.3-1.1c1.3-.6,2.6-1.1,3.9-1.6a1.87,1.87,0,1,0-1.3-3.5,70.35,70.35,0,0,0-12.3,6.1c6.2-4.1,12.5-7.5,17.9-9.2a1.83,1.83,0,1,0-1.1-3.5Z"/><path class="cls-4" d="M517.07,493.54a40.47,40.47,0,0,1,12-4.5l1.7-.4a1.84,1.84,0,1,0-.8-3.6l-1.6.4c-4.3,1-6.4,1.5-12.8,4.8-32.1,16.1-53,34.4-76.1,58.7a1.88,1.88,0,0,0,.1,2.6,2.11,2.11,0,0,0,1.3.5,1.9,1.9,0,0,0,1.3-.5C465.07,527.54,485.57,509.44,517.07,493.54Z"/><path class="cls-4" d="M514.27,486.94c4.7-2.3,7-3,10.4-3.2a1.9,1.9,0,1,0-.2-3.8c-4.3.2-7.2,1.3-11.8,3.5-30.7,14.5-67.4,44.9-77.2,58.3a1.9,1.9,0,0,0,.4,2.6,1.5,1.5,0,0,0,1.1.4,1.8,1.8,0,0,0,1.5-.7C446.77,532.54,481.87,502.14,514.27,486.94Z"/><path class="cls-4" d="M511.57,481l.6-.3a11.92,11.92,0,0,1,5.2-1.4,1.86,1.86,0,0,0-.3-3.7,17.22,17.22,0,0,0-6.5,1.7l-.7.3c-31.9,15-69.4,46.9-77.3,56.9a1.88,1.88,0,0,0,.3,2.6,2,2,0,0,0,2.7-.3C443.37,527,480.17,495.84,511.57,481Z"/><path class="cls-4" d="M434.07,529.84c11.2-14,42.8-40.8,75.4-54a1.84,1.84,0,0,0-1.4-3.4c-33.2,13.5-65.5,40.9-76.9,55.2a1.88,1.88,0,0,0,.3,2.6,1.92,1.92,0,0,0,1.2.4A1.42,1.42,0,0,0,434.07,529.84Z"/><path class="cls-4" d="M433.17,523.54c16.7-20.5,41.6-39.2,66.8-50a1.9,1.9,0,1,0-1.5-3.5c-25.7,11-51.2,30.1-68.2,51a1.89,1.89,0,0,0,.3,2.6,1.92,1.92,0,0,0,1.2.4A2.57,2.57,0,0,0,433.17,523.54Z"/><path class="cls-4" d="M432.47,515.24a2.4,2.4,0,0,0,1.5-.6c13.8-16.1,27-27.8,56.9-43a1.86,1.86,0,0,0-1.7-3.3c-30.5,15.5-44,27.4-58.1,43.9a1.79,1.79,0,0,0,.2,2.6A1.75,1.75,0,0,0,432.47,515.24Z"/><path class="cls-4" d="M433.47,507.34a3,3,0,0,0,1.5-.5c15.4-17.1,19.4-19.7,46.6-35.5a1.9,1.9,0,0,0-1.9-3.3c-27.6,16-32.1,19.1-47.5,36.2a1.79,1.79,0,0,0,.1,2.6A1.85,1.85,0,0,0,433.47,507.34Z"/><path class="cls-4" d="M437.07,497.84a2.13,2.13,0,0,0,1.5-.7c8.3-9.9,19.7-18.6,34-25.7a1.86,1.86,0,0,0-1.7-3.3c-14.8,7.4-26.6,16.3-35.2,26.7a1.79,1.79,0,0,0,.2,2.6A1.92,1.92,0,0,0,437.07,497.84Z"/></g><g id="Little_steam_1" data-name="Little steam_1"><path class="cls-5" d="M493.27,417.54c-3-3-5.9-7.5-3.9-12.1"/></g><g id="Little_steam_2" data-name="Little steam_2"><path class="cls-5" d="M465.07,422.14c-8.9-8.9-7.2-18.8-1.1-29.4,5.6-9.8,10.1-20.7,7.5-33.7"/></g><g id="Big_steam_1"><path class="cls-6" d="M404.17,142.54c-6.8-6.8-13.4-17.1-8.9-27.6"/></g><g id="Big_steam_2"><path class="cls-6" d="M344.67,155.34c-20.2-20.4-16.4-42.8-2.6-67.1,12.7-22.4,23.1-47.3,17.2-77"/></g><g id="Big_steam_3"><path class="cls-6" d="M288.17,148.24a42.13,42.13,0,0,1-15.3-19.1"/></g><g id="Big_steam_4-2" data-name="Big_steam_4"><path class="cls-6" d="M272.27,96.34a63.26,63.26,0,0,1,19.1-30.1"/></g></g></g></svg>